<?xml version="1.0" standalone="no"?>
<!DOCTYPE svg PUBLIC "-//W3C//DTD SVG 20010904//EN"
 "http://www.w3.org/TR/2001/REC-SVG-20010904/DTD/svg10.dtd">
<svg version="1.0" xmlns="http://www.w3.org/2000/svg"
 width="1059.000000pt" height="1059.000000pt" viewBox="0 0 1059.000000 1059.000000"
 preserveAspectRatio="xMidYMid meet">
<metadata>
Created by potrace 1.14, written by Peter Selinger 2001-2017
</metadata>
<g transform="translate(0.000000,1059.000000) scale(0.100000,-0.100000)"
fill="#000000" stroke="none">
<path d="M5208 9361 c-47 -26 -99 -57 -115 -69 -17 -12 -33 -19 -37 -15 -3 3
-6 2 -6 -4 0 -19 -94 -51 -170 -57 -41 -3 -88 -8 -105 -11 -66 -11 -92 -15
-130 -21 -87 -12 -220 -45 -229 -55 -8 -8 12 -10 75 -5 48 3 93 8 100 11 8 2
32 7 54 9 22 3 40 5 40 6 0 1 14 3 30 5 39 4 110 13 155 20 l35 5 -29 -24
c-28 -23 -98 -50 -161 -61 -16 -3 -43 -7 -60 -10 -16 -3 -82 -15 -145 -26 -63
-11 -157 -32 -210 -46 -52 -13 -102 -26 -111 -28 -117 -24 -481 -155 -609
-219 -25 -13 -47 -23 -50 -23 -8 -1 -85 -38 -90 -43 -3 -3 -27 -16 -55 -30
-27 -14 -88 -49 -135 -77 l-85 -51 -500 -4 c-275 -3 -507 -6 -515 -9 -41 -11
-43 -28 -42 -566 l1 -282 -62 -88 c-77 -109 -144 -211 -188 -286 -19 -32 -44
-74 -56 -94 -15 -27 -65 -65 -190 -145 -92 -59 -184 -117 -203 -128 -19 -11
-69 -43 -110 -70 -41 -28 -82 -53 -90 -57 -8 -4 -17 -9 -20 -13 -3 -3 -21 -17
-40 -30 -53 -37 -71 -60 -64 -84 6 -19 74 -131 238 -392 55 -90 57 -93 51
-148 -5 -59 -13 -113 -21 -150 -3 -11 -9 -48 -15 -81 -5 -33 -12 -71 -14 -85
-3 -14 -7 -52 -11 -85 -3 -33 -7 -71 -10 -85 -15 -99 -21 -507 -9 -655 9 -109
15 -177 21 -215 3 -19 9 -64 14 -100 20 -144 57 -322 100 -475 33 -118 89
-294 99 -310 3 -5 6 -14 7 -20 10 -57 186 -438 273 -590 22 -38 46 -81 52 -95
8 -17 13 -148 15 -405 5 -392 11 -895 13 -930 1 -20 9 -20 264 -23 144 -2 398
-4 564 -5 167 -1 303 -6 303 -10 0 -4 8 -4 18 1 30 14 89 4 131 -23 22 -14 45
-25 51 -25 5 0 10 -4 10 -10 0 -5 4 -10 8 -10 4 0 72 -35 150 -79 120 -67 445
-220 477 -225 6 -1 15 -4 20 -7 8 -5 76 -30 95 -34 3 -1 12 -5 20 -8 25 -10
206 -67 232 -73 39 -9 53 -12 53 -14 0 -3 70 -20 145 -36 14 -2 33 -7 42 -10
10 -3 30 -7 45 -10 16 -2 39 -7 53 -10 13 -3 40 -7 59 -10 19 -2 47 -6 63 -9
112 -19 240 -33 383 -40 50 -2 92 -5 95 -5 39 -10 421 7 573 26 27 3 68 7 90
9 23 3 52 6 63 9 12 2 37 7 56 10 20 3 48 10 64 16 28 11 28 12 10 25 -10 8
-23 12 -29 8 -5 -3 -33 -7 -61 -9 -28 -2 -73 -6 -101 -8 -245 -26 -694 -26
-880 -1 -16 3 -48 6 -70 9 -98 10 -161 19 -170 24 -5 3 -25 7 -45 9 -19 2 -39
9 -45 14 -6 6 4 8 30 5 53 -6 156 -17 230 -23 104 -8 735 -9 735 -1 0 5 8 4
19 -1 10 -6 20 -8 23 -6 2 2 43 7 92 10 48 4 98 9 110 11 11 2 37 6 56 9 19 3
46 7 60 10 14 3 41 7 60 10 19 3 45 7 58 10 12 3 32 7 45 10 12 3 34 7 50 10
21 4 164 41 302 78 19 5 90 29 105 34 8 4 17 7 20 8 124 31 506 201 658 293
l63 38 622 2 c642 3 723 5 735 17 4 4 8 282 10 618 l3 612 68 125 c98 178 151
287 144 294 -4 3 0 6 7 6 7 0 10 3 7 7 -4 3 -3 11 2 17 12 14 94 216 91 224 0
1 6 15 14 31 9 16 12 31 9 35 -4 3 -1 6 5 6 7 0 11 3 10 8 -1 4 12 52 29 107
38 119 70 230 77 265 3 14 15 68 26 120 11 52 23 111 26 130 3 19 7 46 10 60
10 55 12 67 19 125 24 197 28 265 28 500 1 203 -6 377 -18 455 -2 14 -7 50
-10 80 -4 30 -9 62 -10 70 -1 8 -6 35 -9 60 -4 25 -16 88 -28 140 -11 52 -21
104 -22 115 -2 11 -6 34 -10 51 -6 28 3 47 81 168 101 156 98 151 181 287 34
56 62 112 62 125 0 16 -19 36 -67 72 -91 67 -341 232 -351 232 -5 0 -17 9 -27
20 -10 11 -22 20 -27 20 -5 0 -35 17 -66 38 -31 22 -61 41 -67 43 -5 2 -53 32
-106 67 -68 44 -102 73 -117 101 -12 22 -49 80 -82 130 -33 51 -60 96 -60 100
0 5 -4 11 -8 13 -4 2 -36 42 -70 89 -168 232 -475 561 -659 706 -20 15 -41 33
-47 39 -6 5 -47 37 -91 69 -44 33 -82 62 -85 65 -3 3 -13 10 -22 15 -9 6 -71
45 -137 88 -66 42 -125 77 -131 77 -5 0 -10 3 -10 8 0 4 -10 12 -23 18 -33 15
-111 58 -117 64 -7 7 -185 95 -256 126 -32 14 -72 32 -89 39 -114 51 -397 148
-525 180 -25 6 -69 16 -88 20 -13 2 -32 7 -42 10 -20 6 -48 12 -95 20 -16 3
-43 8 -58 11 -30 6 -56 10 -122 19 -22 3 -56 7 -75 10 -19 2 -65 7 -103 11
-58 6 -78 13 -150 59 -45 29 -116 71 -158 93 l-76 41 -85 -48z m144 -111 c26
-16 51 -30 54 -30 2 0 10 -5 17 -10 12 -10 659 -425 695 -445 16 -9 69 -43
177 -115 22 -14 47 -29 55 -33 8 -4 56 -33 105 -66 50 -33 137 -89 195 -126
58 -36 141 -90 186 -118 441 -283 566 -363 581 -372 10 -5 43 -26 73 -46 79
-52 195 -126 352 -226 76 -49 257 -164 403 -258 146 -93 273 -174 282 -180 9
-5 22 -14 27 -18 9 -6 179 -115 239 -152 118 -74 548 -359 557 -370 9 -11 8
-20 -9 -41 -12 -15 -21 -31 -21 -36 0 -5 -11 -24 -24 -41 -13 -18 -45 -68 -71
-112 -27 -44 -51 -82 -55 -85 -4 -3 -13 -16 -20 -30 -16 -30 -91 -149 -131
-207 -16 -23 -29 -44 -29 -46 0 -3 -27 -47 -61 -97 -50 -74 -63 -89 -75 -79
-8 6 -14 8 -14 4 0 -5 -8 -2 -17 6 -78 62 -190 98 -209 67 -5 -7 -9 -913 -11
-2013 -1 -1100 -2 -2007 -3 -2015 0 -13 -373 -15 -3299 -15 -1815 0 -3302 3
-3305 6 -3 3 -7 910 -9 2015 -2 1105 -7 2015 -11 2022 -11 18 -72 13 -111 -9
-16 -9 -53 -30 -82 -47 -49 -29 -53 -30 -70 -14 -19 16 -221 330 -334 517 -30
50 -56 92 -60 95 -17 16 -86 149 -80 157 3 6 80 58 171 118 91 59 191 125 222
146 32 22 62 39 68 39 5 0 10 5 10 10 0 6 5 10 10 10 6 0 16 5 23 11 21 18
147 98 147 93 0 -3 10 4 22 16 12 11 34 26 50 32 15 7 28 15 28 18 0 3 20 16
45 30 25 14 45 28 45 32 0 5 5 8 10 8 6 0 35 16 65 36 l54 36 1 252 c1 138 2
385 3 548 1 163 5 300 9 304 11 10 60 11 81 1 9 -4 17 -4 17 1 0 5 23 6 50 2
28 -4 52 -4 55 -1 5 4 163 5 175 1 3 -1 19 -1 35 0 73 6 131 5 148 -2 9 -5 17
-5 17 -1 0 6 107 8 225 3 11 -1 49 -1 85 0 36 0 74 -1 85 -3 11 -3 24 -2 29 1
13 7 252 6 265 -2 5 -4 12 -3 15 2 4 7 16 7 71 3 6 -1 12 -27 13 -58 4 -97 11
-113 45 -113 23 0 179 88 380 215 66 41 121 75 123 75 3 0 10 5 17 10 11 10
243 159 309 199 75 45 731 469 745 481 7 5 16 10 21 10 5 0 15 7 22 15 19 23
47 18 102 -15z m518 -126 c41 -8 89 -17 105 -19 17 -3 41 -8 55 -11 14 -3 35
-8 47 -10 12 -2 32 -9 45 -14 23 -10 15 -9 -89 5 -131 17 -263 47 -263 60 0 7
16 6 100 -11z m-1435 -238 c-16 -14 -41 -31 -55 -38 -14 -7 -27 -15 -30 -18
-11 -12 -95 -63 -99 -61 -2 2 -7 -1 -10 -6 -3 -5 -24 -20 -46 -33 -22 -13 -44
-28 -50 -33 -24 -20 -439 -276 -442 -273 -2 2 -7 26 -9 52 -3 27 -8 51 -10 53
-4 5 -42 9 -96 10 -21 1 -38 5 -38 9 0 10 82 49 89 44 2 -2 7 0 10 5 6 9 54
33 176 88 104 47 235 95 395 147 85 27 173 56 195 63 54 19 54 18 20 -9z
m1785 -3 c30 -8 69 -19 85 -23 17 -4 42 -13 58 -19 15 -6 38 -13 50 -15 35 -7
244 -90 332 -131 44 -21 82 -39 85 -40 27 -8 280 -144 301 -161 8 -8 19 -14
23 -14 4 0 48 -27 98 -60 49 -33 92 -60 94 -60 8 0 234 -168 314 -235 71 -58
178 -154 224 -201 118 -122 196 -206 196 -214 0 -5 6 -10 13 -10 11 -1 77 -79
77 -93 0 -3 -23 8 -50 26 -28 18 -62 39 -75 47 -14 8 -88 56 -167 105 -78 50
-146 92 -152 94 -6 2 -13 7 -16 10 -3 4 -48 33 -100 66 -52 32 -97 63 -98 67
-2 5 -8 6 -13 2 -5 -3 -9 0 -9 5 0 6 -7 11 -15 11 -8 0 -15 4 -15 9 0 5 -13
14 -30 21 -16 7 -30 17 -30 23 0 6 -2 8 -5 5 -5 -5 -152 85 -182 111 -7 6 -15
11 -17 11 -3 0 -59 35 -123 77 -65 42 -127 82 -138 88 -52 30 -360 231 -363
237 -2 5 -8 8 -13 8 -10 0 -62 32 -224 139 -39 25 -83 52 -98 60 -15 8 -27 18
-27 23 0 4 -6 8 -12 8 -7 1 -26 12 -43 26 -21 19 -24 24 -10 19 11 -4 45 -14
75 -22z m2084 -1299 c3 -8 2 -12 -4 -9 -6 3 -10 10 -10 16 0 14 7 11 14 -7z
m46 -54 c0 -5 -2 -10 -4 -10 -3 0 -8 5 -11 10 -3 6 -1 10 4 10 6 0 11 -4 11
-10z m35 -50 c3 -6 -1 -7 -9 -4 -18 7 -21 14 -7 14 6 0 13 -4 16 -10z m-6275
-49 c0 -4 -13 -24 -30 -42 -32 -37 -41 -29 -13 11 23 34 43 48 43 31z m-634
-1390 c-3 -4 -8 -23 -11 -42 -3 -19 -15 -79 -25 -134 -11 -55 -21 -114 -22
-132 -1 -17 -5 -30 -9 -27 -4 2 -6 12 -4 22 1 9 6 37 9 62 3 25 8 56 10 70 3
14 7 43 10 65 10 69 29 134 38 129 5 -3 6 -9 4 -13z m7579 -112 c12 -60 15
-77 20 -124 4 -27 8 -61 10 -75 27 -180 27 -685 -1 -905 -19 -155 -22 -176
-50 -313 -34 -168 -32 -161 -39 -182 -3 -10 -8 -27 -10 -37 -24 -110 -65 -208
-65 -155 0 24 -12 29 -27 10 -9 -11 -51 -115 -58 -143 -1 -5 -5 -17 -8 -25
-29 -68 -97 -258 -97 -269 0 -8 -3 -11 -7 -7 -8 8 -14 2102 -6 2122 3 7 30 -2
80 -28 49 -25 83 -36 97 -33 29 9 81 69 119 137 18 31 33 55 35 54 1 -2 5 -14
7 -27z m-7437 -92 c67 -89 81 -92 187 -32 35 19 65 35 67 35 3 0 5 -492 6
-1092 2 -897 0 -1089 -11 -1068 -14 27 -72 162 -73 170 0 5 -7 21 -47 113 -20
46 -46 79 -48 61 -6 -41 9 -134 21 -134 3 0 7 -6 7 -12 0 -13 37 -110 73 -193
84 -194 106 -319 28 -157 -18 37 -33 69 -33 72 0 3 -5 14 -11 25 -15 28 -75
180 -78 197 -1 7 -8 23 -14 36 -7 12 -10 22 -6 22 3 0 2 6 -4 13 -6 6 -10 15
-10 20 -1 4 -12 42 -25 85 -25 77 -64 214 -73 255 -3 12 -7 33 -10 47 -3 14
-9 42 -15 63 -6 21 -12 52 -14 70 -3 18 -7 43 -10 57 -8 40 -18 107 -31 205
-27 212 -26 770 1 935 2 14 7 49 10 79 3 30 8 57 10 61 2 4 7 30 10 59 3 29
11 64 16 79 10 26 11 26 22 7 7 -12 31 -46 55 -78z m7538 -1229 c-2 -18 -4
-41 -5 -50 0 -10 -5 -18 -10 -18 -6 0 -6 12 -1 30 10 35 10 35 10 55 0 8 2 15
5 15 3 0 3 -15 1 -32z m-23 -145 c-8 -38 -16 -77 -19 -88 -2 -11 -7 -33 -10
-49 -2 -16 -7 -32 -9 -36 -2 -3 -6 -18 -9 -33 -8 -44 -58 -201 -69 -214 -5 -7
-7 -13 -4 -13 4 0 -26 -86 -58 -165 -4 -11 -9 -26 -11 -33 -8 -42 -194 -425
-217 -447 -7 -7 -8 -7 -5 0 11 21 68 147 68 150 0 2 18 42 40 89 42 91 89 204
122 296 56 155 110 318 114 340 3 14 13 54 24 90 10 36 22 81 26 100 4 19 9
38 10 43 1 4 2 14 3 22 0 8 5 15 10 15 5 0 2 -30 -6 -67z m-218 -420 c-2 -10
-4 -22 -4 -26 -1 -5 -6 -5 -11 -2 -7 4 -7 13 0 26 13 24 19 24 15 2z m-2067
-2258 c-288 -139 -640 -259 -888 -301 -14 -2 -34 -6 -46 -9 -12 -3 -39 -7 -60
-10 -21 -4 -46 -8 -54 -11 -8 -2 -36 -6 -62 -9 -60 -7 -86 -13 -97 -20 -5 -3
-13 -1 -16 5 -4 7 -11 8 -18 1 -16 -13 -667 -14 -667 -1 0 5 -7 7 -15 4 -14
-6 -98 6 -230 31 -38 8 -81 16 -95 19 -124 22 -415 107 -595 174 -127 48 -375
162 -375 172 0 3 747 5 1661 6 l1660 0 -103 -51z"/>
<path d="M5240 9069 c-35 -4 -78 -27 -193 -102 -81 -53 -152 -97 -157 -97 -6
0 -10 -4 -10 -10 0 -5 -4 -10 -9 -10 -5 0 -55 -31 -112 -68 -133 -87 -216
-140 -304 -194 -38 -23 -72 -45 -75 -48 -3 -3 -23 -17 -45 -30 -22 -13 -42
-27 -45 -30 -3 -4 -12 -9 -20 -13 -8 -4 -91 -56 -185 -117 -93 -61 -228 -148
-298 -193 -71 -45 -174 -112 -230 -148 -56 -37 -103 -65 -104 -64 -2 1 -6 62
-9 136 -6 156 -8 176 -17 185 -7 7 -1047 8 -1054 1 -4 -4 -11 -301 -17 -767
-2 -129 -4 -242 -5 -251 0 -9 -12 -21 -26 -27 -14 -7 -31 -17 -38 -23 -7 -6
-42 -30 -79 -52 -62 -39 -220 -139 -428 -272 -47 -30 -90 -58 -96 -62 -5 -4
-18 -12 -27 -18 -44 -27 -165 -113 -190 -136 l-29 -26 31 -61 c33 -65 163
-274 189 -304 8 -10 12 -18 8 -18 -4 0 0 -7 8 -16 9 -8 30 -35 46 -59 17 -24
40 -45 53 -48 25 -4 125 46 250 127 45 29 87 56 94 59 9 6 12 -284 13 -1300 1
-1232 8 -2731 13 -2835 2 -26 6 -50 9 -54 14 -13 674 -17 3118 -17 2459 0
3154 4 3168 17 10 10 11 68 16 903 2 425 7 777 11 783 3 5 3 10 -2 10 -9 0 -8
399 1 407 3 3 1 14 -5 25 -5 10 -7 22 -4 27 3 5 6 466 7 1025 1 734 4 1013 12
1009 6 -4 60 -38 119 -75 142 -89 197 -116 223 -109 23 6 51 38 99 111 17 25
34 48 40 52 7 5 7 8 0 8 -6 0 -6 3 0 8 12 7 67 94 140 218 57 96 57 113 3 150
-24 16 -45 31 -48 34 -6 6 -177 120 -202 135 -9 6 -83 53 -165 106 -81 53
-278 181 -438 283 -159 103 -297 191 -305 196 -8 6 -127 82 -265 170 -137 88
-257 164 -265 170 -96 63 -172 110 -180 110 -6 0 -10 4 -10 8 0 5 -10 14 -22
21 -13 6 -36 20 -53 31 -16 11 -37 23 -45 27 -8 3 -27 16 -42 27 -14 12 -56
39 -92 61 -37 22 -108 67 -159 100 -146 94 -202 130 -517 331 -162 103 -296
191 -298 196 -2 4 -9 8 -15 8 -6 0 -40 20 -76 44 -72 47 -146 95 -174 111 -9
5 -94 59 -188 119 -182 117 -187 119 -299 105z m130 -134 c142 -88 163 -101
178 -110 86 -51 178 -111 180 -117 2 -5 8 -8 13 -8 8 0 317 -193 495 -309 38
-25 78 -50 87 -56 9 -5 82 -53 163 -105 80 -52 153 -99 162 -105 9 -5 54 -35
101 -65 108 -68 122 -78 141 -86 8 -4 17 -10 20 -14 3 -3 55 -37 115 -75 61
-38 112 -73 113 -77 2 -5 8 -8 14 -8 5 0 50 -27 100 -60 51 -33 95 -60 100
-60 4 0 8 -4 8 -10 0 -5 4 -10 10 -10 5 0 69 -39 142 -87 73 -49 138 -90 143
-93 30 -15 170 -106 173 -112 2 -5 8 -6 13 -2 5 3 9 0 9 -6 0 -6 8 -14 18 -18
18 -7 233 -142 242 -152 3 -3 21 -14 40 -24 19 -11 37 -22 40 -26 3 -3 45 -31
93 -61 48 -30 112 -70 142 -89 30 -19 99 -63 153 -97 54 -34 103 -72 109 -85
11 -21 28 -61 82 -180 11 -26 21 -50 21 -52 0 -3 5 -17 12 -33 6 -15 12 -30
13 -33 1 -3 4 -12 8 -20 3 -8 14 -40 25 -70 l19 -55 -34 -52 c-18 -29 -39 -53
-45 -53 -14 0 -118 58 -236 133 -107 67 -168 92 -179 74 -4 -6 -8 -43 -10 -82
-5 -99 -12 -1054 -17 -2303 l-4 -1062 -28 -38 c-29 -38 -130 -164 -174 -216
-124 -147 -355 -375 -481 -477 l-94 -76 -2275 0 c-1526 0 -2282 3 -2295 10
-11 5 -22 13 -25 17 -3 4 -34 31 -70 60 -130 107 -530 520 -530 549 0 6 -4 11
-8 11 -5 0 -30 30 -57 68 -27 37 -52 69 -56 72 -4 3 -6 88 -5 190 1 102 -2
191 -7 197 -5 7 -6 13 -1 13 11 0 11 91 0 108 -4 7 -4 12 1 12 10 0 10 91 -1
108 -4 7 -4 12 1 12 10 0 10 91 -1 108 -4 7 -4 12 1 12 4 0 8 124 8 275 0 151
-4 275 -8 275 -5 0 -5 5 -1 12 11 17 11 108 1 108 -5 0 -5 6 0 13 10 17 10 69
-1 85 -5 7 -5 12 1 12 5 0 8 19 6 43 -2 23 -3 48 -3 55 0 15 0 98 0 115 0 6 1
110 2 230 2 121 0 221 -4 223 -4 3 -3 15 1 27 5 14 5 30 0 40 -6 9 -6 17 -2
17 4 0 8 11 8 25 0 14 -3 25 -7 25 -4 0 -3 14 2 30 5 19 5 30 -1 30 -7 0 -7 6
0 17 6 11 6 24 0 35 -6 11 -6 18 0 18 5 0 6 12 2 28 -4 15 -4 39 0 55 4 15 4
27 -1 27 -6 0 -6 10 0 25 6 16 6 25 0 25 -6 0 -6 9 0 25 6 15 6 27 0 30 -6 3
-6 15 0 29 5 13 6 27 3 30 -8 8 -8 74 0 82 3 3 2 16 -2 28 -5 11 -5 30 -1 41
4 11 4 29 1 40 -8 25 -6 68 3 84 4 6 4 11 -1 11 -4 0 -8 75 -9 168 -1 164 -7
253 -19 272 -10 16 -37 11 -74 -14 -122 -80 -341 -209 -347 -204 -1 2 -19 30
-38 62 -36 60 -38 78 -17 136 13 34 22 64 23 70 0 3 5 14 11 25 6 11 12 22 12
25 1 9 35 93 76 188 22 50 29 56 168 145 181 114 290 185 361 234 30 21 58 37
62 36 13 -5 17 54 17 252 0 110 0 219 0 242 1 37 8 49 84 129 45 48 92 97 105
108 13 12 47 44 76 71 46 43 88 81 204 181 23 20 35 22 208 21 101 0 184 -3
185 -6 0 -3 2 -86 3 -185 3 -164 4 -179 22 -189 10 -6 24 -12 31 -13 9 -2 162
87 233 136 69 47 203 130 210 130 4 0 10 3 12 8 4 10 86 62 98 62 5 0 10 5 10
10 0 6 8 14 18 17 9 4 86 51 169 105 84 54 157 98 163 98 5 0 10 4 10 8 0 4
15 16 33 27 17 10 75 46 127 79 52 34 98 60 102 58 4 -1 8 2 8 6 0 5 51 40
113 77 61 38 118 75 125 82 7 7 19 13 26 13 7 0 21 9 31 20 10 11 22 20 27 20
5 0 28 13 51 28 79 54 295 182 306 182 6 0 11 5 11 10 0 20 46 8 100 -25z
m-2757 -787 c-3 -7 -33 -38 -66 -68 -33 -30 -55 -45 -48 -33 12 24 6 49 -15
57 -8 3 -14 17 -14 31 0 25 1 25 75 25 56 0 73 -3 68 -12z m22 -133 c-77 -73
-142 -132 -144 -130 -4 4 93 101 205 203 121 111 83 65 -61 -73z m6169 -1281
c9 -3 16 -12 16 -20 0 -8 4 -14 8 -14 6 0 26 -42 32 -68 1 -4 5 -11 10 -17 18
-23 50 -149 40 -159 -15 -15 -27 1 -54 79 -24 68 -56 151 -71 188 -8 18 -5 20
19 11z m-7158 -151 c-31 -60 -35 -28 -4 37 14 30 22 39 25 28 2 -9 -7 -38 -21
-65z m654 -3776 c0 -13 -25 16 -39 43 -11 22 -9 21 13 -5 14 -16 26 -34 26
-38z m6024 -9 c-53 -63 -92 -103 -243 -251 -230 -227 -291 -284 -275 -256 5 8
36 39 69 69 81 71 372 364 415 418 19 23 39 42 44 42 5 0 1 -10 -10 -22z
m-5964 -63 c13 -14 21 -25 18 -25 -2 0 -15 11 -28 25 -13 14 -21 25 -18 25 2
0 15 -11 28 -25z m-93 -129 c12 -21 126 -147 234 -257 52 -53 102 -105 113
-117 l18 -21 -187 4 c-103 2 -190 7 -193 9 -8 9 -8 396 0 396 4 0 11 -6 15
-14z m6082 -103 c-1 -43 0 -82 1 -88 1 -5 1 -14 0 -20 -7 -32 -6 -56 2 -61 4
-3 5 -10 1 -17 -3 -6 -6 -33 -6 -59 l1 -49 -220 5 c-121 2 -222 7 -225 10 -6
5 98 105 110 106 4 0 3 -8 -2 -19 -11 -20 -5 -31 17 -31 18 0 66 44 236 219
44 44 80 81 82 81 2 0 3 -35 3 -77z"/>
<path d="M7326 7089 c-35 -28 -71 -93 -86 -157 -14 -62 -25 -73 -28 -29 -2 17
-12 41 -23 53 -22 23 -55 21 -115 -7 l-29 -14 -1 -137 c-1 -75 -4 -144 -7
-152 -4 -9 -2 -16 4 -16 6 0 8 -4 4 -9 -3 -6 -8 -50 -10 -98 -3 -48 -7 -99
-10 -113 -3 -14 -8 -41 -11 -60 -9 -52 -9 -52 -28 -95 -21 -49 -44 -75 -67
-75 -34 0 -35 11 -44 280 -10 318 -14 358 -36 361 -22 3 -37 2 -76 -5 -37 -7
-47 -4 -79 21 -53 40 -118 39 -171 -3 -81 -66 -144 -216 -158 -379 -13 -148
-27 -255 -39 -300 -16 -64 -35 -105 -59 -127 -30 -27 -45 -15 -63 52 -3 8 -6
148 -7 310 -2 211 -6 301 -15 318 -16 27 -46 31 -96 12 -11 -4 -25 -8 -30 -8
-23 -1 -30 -49 -32 -217 -3 -255 -12 -347 -45 -457 -21 -72 -39 -98 -70 -98
-22 0 -31 18 -33 61 -1 16 -3 29 -6 29 -3 0 -6 116 -8 258 -1 141 -4 276 -7
300 -7 67 -23 74 -120 58 -74 -13 -134 -16 -140 -6 -3 5 -8 39 -10 76 -6 78
-9 84 -42 84 -30 0 -82 -52 -84 -84 -4 -50 2 -68 30 -99 17 -17 29 -39 26 -47
-3 -8 -7 -40 -10 -70 -4 -30 -8 -66 -11 -80 -3 -14 -7 -41 -9 -60 -9 -67 -26
-185 -31 -210 -2 -14 -7 -43 -9 -65 -21 -160 -53 -253 -95 -275 -23 -12 -23
-13 -6 65 12 57 14 301 2 370 -14 87 -79 175 -130 175 -72 -1 -160 -65 -195
-143 -17 -36 -41 -111 -46 -142 -1 -5 -3 -12 -4 -15 -1 -3 -4 -18 -6 -35 -2
-16 -6 -40 -9 -52 -2 -11 -8 -42 -11 -67 -7 -46 -33 -67 -30 -23 1 12 0 26 -3
31 -8 14 -14 84 -14 161 0 66 14 123 57 220 17 39 76 205 80 228 2 9 6 21 9
25 3 5 8 24 11 43 3 19 8 42 11 51 10 35 14 65 16 138 2 100 -12 130 -73 148
-130 41 -210 -53 -244 -283 -4 -22 -8 -47 -10 -55 -4 -15 -15 -115 -20 -200
-2 -25 -6 -150 -10 -279 -9 -333 -10 -347 -47 -495 -20 -82 -52 -155 -85 -193
-14 -15 -26 -20 -46 -16 -32 6 -62 45 -53 68 3 8 2 15 -2 15 -4 0 -7 43 -7 95
0 52 2 95 5 95 3 0 5 28 6 63 1 66 13 198 19 208 2 3 7 32 10 65 4 32 8 61 10
65 12 19 23 239 13 239 -5 0 -8 7 -8 16 0 33 -32 83 -59 92 -33 12 -106 5
-141 -13 -14 -7 -38 -30 -55 -50 -16 -20 -34 -42 -40 -49 -5 -6 -11 -18 -13
-26 -2 -8 -7 -17 -10 -20 -4 -3 -9 -12 -11 -20 -2 -8 -12 -44 -21 -80 -10 -36
-25 -110 -34 -165 -10 -55 -20 -113 -22 -130 -6 -31 -9 -57 -20 -140 -8 -64
-14 -70 -14 -14 -1 113 -9 326 -13 339 -3 8 -8 29 -12 47 -4 18 -19 46 -34 62
-26 29 -83 59 -106 56 -43 -5 -83 -21 -101 -39 -27 -28 -62 -105 -70 -155 -7
-42 -24 -57 -24 -21 0 31 -21 68 -43 74 -20 5 -104 -19 -120 -34 -8 -8 -10
-83 -4 -180 1 -25 -1 -51 -6 -57 -6 -8 -6 -13 -1 -13 5 0 10 -57 11 -127 1
-171 6 -253 16 -253 4 0 7 -6 7 -14 0 -12 28 -45 64 -74 9 -7 37 -14 63 -15
46 -2 48 -1 44 23 -6 39 -5 306 2 390 4 41 9 104 12 140 3 36 8 72 10 82 8 22
15 57 20 90 5 34 32 93 49 107 22 19 46 -11 55 -67 4 -30 9 -134 10 -231 4
-331 10 -368 71 -411 33 -23 106 -35 128 -21 7 4 15 30 17 57 12 158 20 236
29 294 3 19 8 52 11 73 10 75 16 104 36 192 11 50 23 105 26 123 3 18 9 35 14
38 5 3 9 12 9 21 0 39 70 153 94 153 31 0 39 -85 21 -225 -7 -58 -9 -73 -20
-125 -2 -14 -7 -43 -10 -65 -3 -23 -8 -52 -10 -65 -3 -14 -8 -42 -10 -63 -2
-21 -7 -43 -11 -49 -5 -7 -3 -8 5 -3 10 6 11 3 3 -11 -11 -21 -9 -254 2 -294
4 -14 8 -29 9 -35 7 -29 45 -76 76 -93 43 -24 86 -29 124 -13 16 6 31 11 34
11 3 0 21 16 40 35 47 49 107 182 128 288 10 48 21 87 25 87 4 0 13 -13 20
-29 28 -68 134 -132 194 -117 l26 6 -19 48 c-39 101 9 434 80 548 50 81 102
33 115 -108 10 -102 11 -363 2 -381 -5 -10 -38 -31 -73 -47 -64 -29 -77 -41
-82 -74 -3 -16 1 -15 21 7 14 15 31 27 38 28 7 0 22 2 33 5 39 7 47 -3 30 -36
-16 -32 -42 -50 -72 -50 -51 -1 -52 -44 -2 -55 38 -9 63 7 160 104 42 42 99
95 127 118 49 42 96 118 106 173 2 14 7 36 10 50 9 39 16 81 21 130 3 25 10
71 16 102 5 32 12 74 14 95 2 21 7 49 10 63 3 14 8 45 10 70 10 105 20 129 53
126 15 -1 32 1 38 6 24 18 46 -17 48 -76 0 -32 -2 -60 -6 -62 -4 -3 -5 -14 -2
-27 3 -12 7 -101 9 -197 4 -188 4 -193 30 -258 21 -52 63 -83 118 -87 78 -6
151 46 177 125 7 23 17 43 21 46 4 2 17 -11 28 -30 12 -18 35 -40 52 -49 36
-17 124 -16 157 2 30 16 91 129 104 195 11 52 28 70 43 46 11 -18 76 -40 117
-40 32 0 46 6 68 30 24 25 79 146 86 187 1 6 6 19 12 29 7 13 10 0 11 -51 2
-167 64 -256 175 -250 76 4 132 57 161 153 6 22 25 31 25 12 0 -16 54 -68 81
-79 14 -5 42 -9 63 -9 37 0 37 0 29 32 -9 37 -9 291 1 391 13 143 18 182 31
252 19 99 48 163 74 163 26 0 38 -23 47 -86 3 -27 8 -52 11 -56 2 -5 -1 -8 -7
-8 -7 0 -8 -6 -2 -17 5 -10 10 -88 11 -173 4 -273 17 -334 82 -381 37 -26 131
-37 164 -19 28 15 85 92 85 114 0 9 5 16 12 16 6 0 9 2 6 6 -3 3 1 26 9 52 27
89 40 187 25 196 -17 10 -41 -19 -46 -54 -2 -19 -10 -57 -16 -85 -6 -27 -14
-60 -16 -72 -9 -49 -43 -111 -64 -118 -53 -17 -65 31 -75 315 -6 163 -11 235
-21 285 -3 17 -7 35 -8 40 -5 29 -50 85 -80 99 -48 23 -108 21 -140 -5z
m-2297 -181 c5 -13 7 -32 5 -43 -1 -11 -5 -40 -8 -65 -3 -25 -8 -56 -11 -70
-3 -14 -7 -34 -9 -45 -2 -11 -10 -40 -17 -65 -15 -55 -19 -70 -21 -92 -1 -10
-6 -18 -11 -18 -4 0 -6 -4 -3 -8 3 -5 -2 -31 -10 -58 -9 -27 -17 -54 -18 -61
-1 -7 -5 -16 -9 -19 -4 -4 -7 -16 -7 -26 0 -10 -5 -18 -10 -18 -10 0 -7 83 5
140 3 14 7 45 10 70 3 39 10 77 40 235 11 58 48 165 57 165 5 0 12 -10 17 -22z
m1667 -163 c-24 -158 -84 -437 -107 -496 -8 -20 -16 -25 -30 -22 -56 15 -72
135 -37 293 36 167 94 268 155 268 24 0 25 -3 19 -43z"/>
<path d="M6058 6924 c-52 -27 -53 -99 -2 -123 31 -14 47 -14 78 1 25 11 32 23
41 66 4 21 -27 61 -48 63 -7 0 -19 2 -28 4 -8 1 -27 -3 -41 -11z"/>
<path d="M3308 6443 c-30 -12 -38 -21 -38 -42 -2 -118 -14 -272 -26 -335 -2
-10 -6 -44 -9 -75 -4 -31 -8 -63 -10 -71 -2 -8 -7 -37 -11 -65 -3 -27 -8 -59
-10 -70 -2 -10 -6 -37 -10 -59 -5 -39 -61 -316 -69 -348 -3 -10 -7 -27 -9 -37
-10 -45 -37 -81 -60 -81 -37 0 -52 27 -62 110 -4 41 -13 328 -18 625 -3 116
-5 210 -6 210 -1 0 -2 28 -2 62 -2 87 -24 114 -100 118 -107 6 -227 -55 -323
-164 -16 -19 -34 -39 -40 -45 -20 -22 -64 -92 -76 -121 -50 -122 33 -204 233
-231 38 -5 38 -5 27 23 -5 15 -14 32 -20 39 -33 40 -42 149 -19 234 24 92 111
233 131 213 20 -20 26 -116 33 -523 6 -302 12 -457 21 -515 12 -85 20 -111 37
-129 10 -11 18 -23 18 -27 0 -11 61 -29 107 -31 42 -1 85 19 110 51 31 40 90
202 107 295 2 11 7 39 11 61 4 22 10 44 13 49 3 5 6 23 8 40 7 64 17 96 29 84
3 -2 7 -54 10 -114 13 -297 38 -343 190 -357 12 -1 19 3 17 12 -29 136 -38
271 -47 741 -9 429 -11 472 -27 481 -20 13 -69 10 -110 -8z m-28 -723 c0 -11
-4 -20 -9 -20 -5 0 -7 9 -4 20 3 11 7 20 9 20 2 0 4 -9 4 -20z"/>
<path d="M7770 5577 c-19 -6 -56 -32 -82 -58 -43 -43 -53 -59 -49 -81 0 -5 -3
-8 -7 -8 -7 0 -32 -79 -38 -120 -1 -8 -5 -35 -8 -60 -8 -51 -11 -84 -21 -190
-4 -41 -13 -104 -21 -140 -8 -36 -16 -71 -16 -77 -1 -7 -5 -13 -10 -13 -5 0
-7 -4 -4 -8 8 -13 -30 -69 -59 -88 -31 -20 -44 -9 -46 41 -3 67 -8 310 -10
465 -1 91 -4 170 -6 176 -5 15 -79 9 -123 -10 -30 -12 -39 -12 -60 0 -14 7
-35 13 -47 14 -12 0 -24 4 -28 9 -8 14 -75 -16 -110 -50 -35 -33 -83 -122
-101 -184 -21 -75 -40 -190 -48 -305 -15 -188 -66 -326 -116 -313 -25 7 -35
71 -39 248 -1 77 -3 206 -5 286 -3 150 -12 189 -46 184 -22 -3 -120 -16 -159
-21 -60 -8 -68 -1 -67 66 1 33 -2 60 -6 60 -5 0 -7 3 -7 8 4 23 -4 32 -25 32
-26 0 -81 -41 -85 -62 -10 -72 -8 -86 18 -114 32 -34 44 -61 30 -69 -5 -4 -7
-9 -5 -13 2 -4 0 -32 -5 -62 -21 -134 -38 -269 -44 -363 -2 -34 -13 -93 -25
-132 -11 -38 -22 -75 -23 -80 -5 -20 -49 -100 -65 -119 -42 -46 -138 -64 -184
-34 -32 21 -70 102 -76 160 l-5 49 68 66 c180 179 227 347 125 454 -33 35 -42
39 -85 39 -108 0 -213 -97 -241 -220 -12 -55 -14 -67 -18 -100 -3 -19 -8 -60
-11 -90 -8 -79 -23 -184 -28 -210 -2 -8 -7 -37 -12 -65 -4 -27 -18 -73 -30
-102 -43 -96 -95 -77 -101 35 -2 31 -5 68 -7 82 -2 14 0 34 4 45 3 11 3 29 -1
40 -4 11 -3 28 2 38 5 9 5 17 0 17 -4 0 -5 25 -2 55 3 30 3 55 -1 55 -4 0 -4
14 1 30 5 19 5 30 -1 30 -6 0 -7 5 -4 10 8 12 5 122 -4 182 -1 4 -12 15 -25
23 -22 14 -28 14 -80 -5 -56 -21 -56 -22 -56 -63 0 -150 -9 -488 -14 -516 -13
-81 -59 -181 -100 -219 -32 -30 -87 -52 -129 -52 -37 0 -87 37 -87 65 0 8 -4
15 -8 15 -5 0 -9 6 -10 13 0 6 -6 30 -11 52 -17 63 -25 151 -25 265 1 161 49
286 124 325 17 9 31 16 33 18 2 1 15 -6 31 -16 30 -20 40 -18 30 6 -8 22 -70
45 -113 42 -117 -8 -218 -124 -237 -275 -3 -19 -6 -42 -9 -50 -2 -8 -7 -46
-11 -85 -6 -66 -8 -82 -18 -152 -15 -110 -28 -162 -59 -236 -22 -52 -81 -44
-92 11 -7 36 -15 166 -20 327 -6 181 -12 228 -35 281 -36 83 -107 118 -186 91
-47 -15 -78 -58 -105 -149 -12 -37 -25 -68 -31 -68 -5 0 -7 4 -4 9 3 5 1 22
-5 39 -12 35 -59 58 -78 39 -6 -6 -11 -8 -11 -5 0 4 -17 -2 -37 -12 l-37 -18
-2 -123 c-1 -68 -3 -188 -4 -266 l-1 -142 -40 -36 c-40 -36 -77 -55 -106 -55
-15 0 -15 33 1 117 9 45 18 150 17 192 -3 101 -31 174 -90 231 -36 35 -51 42
-120 55 -26 5 -68 -14 -94 -42 -9 -11 -39 -30 -65 -42 -53 -25 -69 -44 -77
-93 -3 -18 -8 -40 -10 -48 -12 -46 -18 -147 -19 -325 -2 -194 -12 -275 -37
-275 -5 0 -9 -6 -9 -13 0 -16 -45 -59 -80 -77 -13 -7 -51 -13 -84 -14 -55 0
-61 2 -88 34 -40 47 -67 102 -89 177 -10 35 -18 67 -18 71 -1 4 -3 21 -6 37
-3 17 -7 50 -10 75 -3 25 -7 61 -10 80 -8 49 -8 235 -1 296 19 153 63 273 119
320 37 31 68 30 107 -2 17 -15 33 -24 36 -21 10 9 -25 64 -52 81 -33 22 -135
24 -184 3 -90 -39 -178 -183 -197 -322 -13 -103 -5 -553 12 -606 3 -9 8 -27
10 -40 62 -322 426 -392 601 -115 30 48 43 55 66 34 18 -17 35 -21 88 -21 94
1 148 34 206 124 35 54 48 64 98 79 43 13 79 33 113 64 13 10 24 18 25 15 2
-2 14 -26 28 -54 26 -52 77 -89 113 -81 9 2 17 0 17 -4 0 -4 9 -6 21 -3 18 5
20 10 13 42 -16 74 -4 395 20 556 14 94 18 115 33 162 17 57 44 89 67 80 31
-12 40 -92 51 -447 2 -80 8 -160 14 -177 23 -79 87 -127 163 -124 81 2 125 41
159 138 13 35 26 63 31 63 4 0 16 -17 27 -37 46 -89 106 -122 214 -118 40 2
88 10 108 19 41 17 139 111 139 132 0 8 4 14 9 14 5 0 12 14 16 31 10 42 30
46 62 12 40 -42 61 -50 121 -48 74 4 98 24 144 121 l39 85 43 -59 c57 -77 93
-94 194 -91 47 1 93 9 118 20 43 18 120 90 130 121 3 10 10 18 16 18 6 0 8 3
5 7 -4 3 -1 13 5 21 7 8 13 21 14 29 1 8 6 22 10 31 8 20 7 15 22 68 11 37 17
81 27 207 2 23 4 44 5 47 1 3 2 8 1 12 0 4 4 38 10 75 6 38 12 79 13 93 3 28
14 101 22 141 5 25 8 27 63 26 l59 -1 1 -200 c2 -280 9 -369 33 -415 16 -32
48 -76 48 -66 0 4 7 1 16 -6 10 -8 42 -13 79 -13 58 -1 64 1 91 33 35 39 74
112 68 123 -3 4 0 8 6 8 6 0 9 4 6 8 -3 5 1 20 9 35 8 15 12 27 9 27 -3 0 0 9
6 21 11 20 12 20 37 -5 26 -27 79 -41 135 -37 26 2 75 77 109 168 18 46 34 83
36 83 2 0 2 -48 -1 -107 -2 -60 -5 -131 -5 -160 -1 -50 -3 -55 -60 -110 -57
-57 -91 -110 -106 -168 -5 -16 -10 -37 -12 -45 -11 -40 -8 -159 5 -197 24 -74
122 -103 188 -55 54 38 107 187 134 377 17 119 25 139 69 163 54 30 98 79 112
121 6 20 15 41 19 46 5 6 8 13 7 17 -5 20 14 17 22 -4 28 -75 104 -127 193
-132 154 -9 253 66 322 242 51 130 62 241 21 226 -13 -6 -33 -58 -40 -109 -7
-47 -46 -150 -75 -199 -44 -71 -106 -103 -179 -91 -35 6 -42 12 -70 65 -18 33
-34 81 -37 107 l-5 48 71 75 c122 128 171 217 171 311 1 58 -30 132 -65 154
-33 22 -101 27 -146 12z m138 -74 c29 -71 17 -135 -40 -224 -43 -66 -127 -161
-138 -154 -4 3 -6 44 -4 92 4 96 4 97 24 163 8 25 14 48 14 51 1 3 14 26 30
51 46 73 90 81 114 21z m-675 -169 c0 -5 -6 -43 -13 -84 -14 -86 -13 -80 -35
-180 -9 -41 -18 -88 -21 -105 -9 -52 -45 -154 -63 -176 l-17 -22 -21 42 c-12
23 -20 53 -18 67 1 13 -1 24 -5 24 -4 0 -6 15 -4 33 2 17 5 55 8 84 3 28 10
71 17 95 7 23 14 52 16 63 8 44 69 150 93 162 27 13 66 11 63 -3z m-1131 -250
c22 -38 28 -98 14 -139 -25 -70 -155 -245 -183 -245 -11 0 -10 97 2 200 8 69
42 146 85 188 39 39 57 38 82 -4z m-2168 -499 c24 -37 29 -71 32 -236 3 -158
-6 -233 -31 -258 -11 -11 -20 -8 -57 18 -74 53 -78 57 -85 102 -12 78 -6 236
9 245 5 3 6 9 3 14 -8 14 25 92 52 121 28 31 54 29 77 -6z m3277 13 c2 -29 2
-26 -5 -70 -3 -21 -9 -55 -12 -75 -5 -32 -27 -121 -51 -205 -3 -10 -9 -18 -14
-18 -5 0 -10 8 -11 18 -4 38 -3 142 2 142 3 0 6 15 6 33 1 17 5 43 8 57 4 14
9 32 11 40 2 8 4 15 5 15 1 0 3 8 5 17 4 20 37 67 48 68 4 0 8 -10 8 -22z
m-3456 -518 c10 -11 22 -17 26 -14 5 3 9 1 9 -4 0 -8 47 -31 93 -46 29 -9 19
-40 -31 -94 -38 -41 -53 -51 -72 -47 -23 5 -41 25 -47 55 -8 40 -12 170 -4
170 4 0 16 -9 26 -20z"/>
<path d="M5475 5217 c-70 -38 -53 -125 27 -132 45 -4 75 19 83 63 9 56 -58 99
-110 69z"/>
<path d="M3239 3253 c-12 -3 -15 -13 -13 -44 4 -50 12 -245 15 -363 2 -109 20
-101 26 11 2 43 6 84 8 92 13 34 55 -47 70 -132 3 -21 10 -35 14 -32 19 11 -3
131 -34 191 -12 24 -12 31 2 57 50 97 -6 237 -88 220z m64 -70 c26 -51 6 -163
-29 -163 -18 0 -23 46 -15 173 2 26 29 20 44 -10z"/>
<path d="M3917 3249 c-9 -6 -14 -19 -12 -37 4 -37 18 -392 17 -419 -1 -12 3
-25 8 -28 6 -3 10 4 11 17 2 60 9 154 14 166 15 41 62 -40 64 -114 1 -11 8
-29 17 -40 14 -18 15 -15 10 31 -6 61 -19 105 -42 144 -17 28 -17 32 0 68 29
66 26 140 -9 181 -28 33 -54 44 -78 31z m61 -51 c28 -35 17 -160 -15 -173 -22
-8 -25 -3 -27 63 -5 107 11 147 42 110z"/>
<path d="M5399 3251 c-9 -3 -15 -15 -13 -25 1 -11 5 -90 9 -175 3 -86 7 -168
9 -183 2 -16 -1 -28 -5 -28 -5 0 -4 -12 1 -26 6 -14 8 -29 5 -34 -3 -5 -1 -11
4 -14 14 -9 18 11 20 94 2 93 8 115 26 100 12 -10 42 -94 48 -138 2 -12 9 -28
15 -34 26 -26 -2 127 -35 191 -10 20 -9 30 4 55 50 96 -11 246 -88 217z m65
-68 c7 -16 12 -48 11 -73 -4 -55 -3 -51 -20 -74 -26 -34 -40 -6 -39 77 1 100
19 126 48 70z"/>
<path d="M3583 3223 c-8 -19 -8 -401 -1 -456 6 -41 18 -61 19 -31 5 168 4 161
38 199 42 49 50 71 52 153 2 83 1 89 -34 124 -31 31 -64 36 -74 11z m53 -31
c32 -22 38 -146 9 -202 -31 -60 -43 -31 -40 101 4 121 3 120 31 101z"/>
<path d="M4716 3204 c-9 -46 -15 -100 -21 -219 -12 -199 -12 -265 -4 -265 5 0
10 5 10 10 1 6 3 15 4 20 1 6 3 26 4 45 1 28 6 36 27 41 29 7 51 -9 57 -41 5
-28 25 -75 32 -75 3 0 3 12 0 28 -3 15 -8 43 -11 62 -3 19 -7 46 -10 60 -3 14
-7 39 -10 55 -2 17 -7 41 -10 55 -3 14 -8 45 -11 70 -3 25 -8 47 -12 50 -3 3
-6 13 -7 23 -3 61 -5 75 -18 92 -13 18 -14 17 -20 -11z m20 -119 c-3 -8 -2
-15 2 -15 4 0 9 -12 10 -27 1 -16 5 -39 8 -53 8 -34 11 -92 6 -107 -2 -7 -15
-13 -29 -13 -24 0 -24 1 -18 68 3 37 6 88 6 115 1 26 5 47 11 47 6 0 8 -7 4
-15z"/>
<path d="M4876 3222 c-4 -7 -1 -337 4 -337 1 0 3 -27 5 -60 6 -83 9 -88 47
-80 38 8 73 34 48 36 -62 3 -70 12 -74 85 -2 32 -5 59 -5 59 -1 0 -4 67 -6
148 -3 142 -6 169 -19 149z"/>
<path d="M5195 3220 c-2 -4 7 -17 20 -28 23 -20 25 -29 26 -114 0 -81 4 -211
8 -273 1 -14 4 -16 9 -8 5 7 9 78 11 158 3 194 5 206 38 232 15 12 25 25 22
27 -8 9 -130 13 -134 6z"/>
<path d="M6129 3219 c-11 -31 5 -441 18 -462 6 -10 18 -11 51 -5 41 9 58 27
27 29 -8 1 -19 3 -25 4 -5 1 -14 3 -19 4 -20 2 -27 76 -32 301 -2 104 -10 159
-20 129z"/>
<path d="M7268 3222 c-24 -5 -23 -19 2 -27 11 -3 20 -14 21 -23 0 -9 2 -95 4
-190 3 -160 7 -194 20 -180 3 2 7 81 9 174 2 93 7 176 11 185 3 9 17 21 31 27
23 11 33 31 17 33 -25 4 -101 5 -115 1z"/>
<path d="M7465 3216 c-5 -6 -11 -29 -11 -51 -1 -22 -5 -78 -8 -125 -12 -147
-15 -310 -5 -315 10 -7 11 -2 14 57 2 43 7 51 37 55 30 5 45 -12 53 -58 9 -54
28 -51 21 4 -8 58 -16 99 -22 120 -3 9 -7 34 -10 55 -2 20 -6 48 -9 62 -2 14
-7 43 -10 65 -3 22 -7 47 -9 55 -19 88 -24 96 -41 76z m22 -128 c-2 -7 0 -24
5 -37 12 -32 21 -99 19 -141 -2 -40 0 -37 -26 -42 -18 -3 -20 2 -19 52 3 156
5 180 15 180 6 0 9 -6 6 -12z"/>
<path d="M7856 3222 c-17 -4 -16 -6 9 -26 l28 -22 2 -145 c2 -79 3 -163 4
-186 1 -24 6 -43 12 -43 6 0 9 6 6 14 -3 8 -3 16 -1 19 3 3 7 72 8 154 4 157
14 206 43 201 10 -2 19 4 21 15 2 11 -3 17 -15 18 -50 4 -100 4 -117 1z"/>
<path d="M2827 3200 c-14 -11 -29 -32 -35 -47 -13 -39 -7 -304 8 -343 1 -3 2
-8 2 -11 -2 -13 34 -38 61 -43 24 -4 31 0 50 32 27 46 28 49 31 157 3 135 -10
208 -44 245 -33 35 -39 36 -73 10z m57 -29 c18 -20 36 -86 31 -111 -2 -11 0
-20 5 -20 5 0 5 -13 0 -30 -5 -18 -5 -32 1 -36 5 -3 6 -10 3 -16 -4 -6 -8 -29
-10 -52 -3 -58 -11 -88 -27 -103 -44 -44 -84 64 -81 217 3 139 34 200 78 151z"/>
<path d="M3014 3205 c-4 -10 -8 -47 -8 -82 -1 -35 -4 -63 -7 -63 -3 0 -5 -10
-3 -22 1 -13 3 -23 4 -23 1 0 3 -43 4 -95 5 -145 25 -184 86 -165 25 8 55 93
65 190 2 17 6 50 9 75 8 68 10 190 2 197 -12 12 -15 -3 -21 -87 -11 -156 -21
-228 -41 -288 -24 -71 -47 -91 -59 -53 -16 51 -17 84 -12 319 2 95 -5 133 -19
97z"/>
<path d="M3747 3211 c-2 -3 -2 -26 -1 -51 1 -25 5 -117 9 -205 3 -92 11 -165
17 -172 6 -8 24 -12 41 -10 38 4 49 27 13 27 -34 0 -53 31 -51 87 1 45 3 49
35 59 46 15 48 30 8 43 -28 9 -34 17 -37 44 -11 127 -4 163 29 154 11 -3 21 1
24 9 3 8 0 14 -7 15 -7 0 -27 2 -45 3 -18 2 -34 1 -35 -3z"/>
<path d="M4323 3201 c-27 -21 -46 -59 -39 -77 3 -8 2 -14 -2 -14 -4 0 -6 -53
-5 -117 0 -65 2 -118 3 -118 1 0 4 -13 6 -29 8 -49 31 -83 60 -89 38 -7 47 -2
67 36 15 27 32 137 28 182 0 6 -2 35 -4 65 -10 133 -60 204 -114 161z m78 -85
c16 -59 13 -236 -5 -293 -7 -23 -32 -37 -48 -27 -8 5 -27 42 -33 67 -2 4 -4 8
-5 10 -9 9 -13 160 -6 222 2 17 4 36 5 43 0 6 10 21 22 33 20 20 22 20 40 3
10 -9 24 -35 30 -58z"/>
<path d="M5619 3203 c0 -10 -2 -27 -4 -38 -15 -76 -26 -445 -14 -445 5 0 10
10 11 23 2 39 5 72 6 84 1 6 16 11 35 10 29 -2 33 -6 46 -49 17 -57 31 -62 26
-10 -2 20 -4 37 -5 37 -2 0 -3 11 -21 120 -6 39 -13 79 -16 90 -2 11 -6 36 -8
55 -2 19 -4 37 -6 40 -1 3 -3 10 -4 15 -12 65 -19 85 -31 85 -8 0 -14 -8 -15
-17z m23 -107 c0 -3 5 -27 12 -53 7 -27 14 -76 15 -111 l2 -63 -27 3 c-31 3
-30 -1 -20 123 2 28 5 65 5 84 1 19 4 32 7 29 3 -4 6 -9 6 -12z"/>
<path d="M5964 3209 c-3 -5 -2 -74 1 -152 4 -78 8 -173 9 -212 l1 -70 35 -1
c64 -1 78 18 22 29 -33 7 -42 27 -42 95 0 44 1 45 53 56 36 8 34 23 -3 31 -40
9 -47 26 -46 120 l1 80 28 -1 c26 0 41 25 15 27 -7 0 -25 2 -40 4 -15 2 -30
-1 -34 -6z"/>
<path d="M6489 3213 c-20 -118 -36 -503 -21 -488 6 6 13 33 16 60 2 28 5 51 5
53 1 1 11 2 24 2 38 0 53 -17 56 -66 1 -5 7 -19 15 -29 13 -18 14 -17 11 10
-4 37 -23 155 -35 215 -14 65 -19 99 -26 154 -7 59 -20 96 -34 96 -5 0 -11 -3
-11 -7z m29 -163 c29 -141 26 -183 -11 -178 -19 3 -22 9 -20 48 8 219 11 230
31 130z"/>
<path d="M2721 3183 c-14 -34 -21 -69 -23 -105 -2 -52 -25 -31 -53 50 -11 28
-25 52 -31 52 -9 0 -7 -16 7 -57 12 -32 27 -80 35 -108 14 -47 17 -72 29 -214
5 -54 24 -96 26 -55 1 22 -2 124 -5 172 -3 43 13 160 28 210 21 69 11 112 -13
55z"/>
<path d="M5727 3203 c-3 -4 1 -37 9 -73 7 -36 15 -77 16 -92 1 -16 6 -28 11
-28 4 0 6 -3 3 -8 -4 -7 21 -165 31 -192 3 -8 8 -26 10 -40 6 -35 11 -37 22
-7 9 23 36 168 45 242 2 17 7 53 11 80 3 28 8 64 11 82 2 18 0 35 -5 38 -8 4
-13 -8 -26 -65 -1 -6 -15 -102 -21 -150 -8 -61 -26 -142 -30 -138 -2 3 -6 24
-9 49 -7 65 -20 137 -42 229 -15 66 -27 89 -36 73z"/>
<path d="M4484 3176 c-3 -14 -4 -42 -2 -61 2 -19 2 -35 -2 -35 -3 0 -6 -82 -8
-183 -3 -134 -1 -179 8 -171 7 7 12 70 14 168 2 86 6 159 9 162 3 3 15 -27 27
-68 57 -194 82 -259 93 -242 11 19 18 422 8 429 -13 7 -13 9 -16 -83 -5 -130
-16 -206 -29 -191 -3 4 -41 148 -51 193 -8 37 -28 91 -36 100 -4 5 -11 -3 -15
-18z"/>
<path d="M6995 3063 c6 -240 21 -342 43 -283 5 14 7 30 4 35 -4 6 -7 28 -8 50
-3 55 -15 224 -18 255 -2 14 -4 37 -4 53 -1 15 -6 27 -11 27 -5 0 -8 -61 -6
-137z"/>
<path d="M7619 3184 c-10 -161 -16 -437 -11 -451 11 -32 18 4 20 94 1 54 2
100 2 103 1 3 2 33 2 67 1 70 12 74 28 10 6 -23 12 -46 14 -52 2 -5 4 -13 5
-17 1 -4 8 -26 16 -48 8 -22 12 -40 9 -40 -2 0 2 -13 10 -29 9 -16 12 -31 9
-35 -4 -3 -1 -6 5 -6 7 0 11 -3 11 -7 -1 -5 -1 -16 0 -26 1 -14 4 -15 14 -6 8
8 12 51 13 138 1 69 4 161 6 203 5 72 -2 112 -15 91 -3 -5 -9 -56 -12 -114 -3
-57 -7 -113 -9 -124 -3 -11 -5 -26 -5 -34 -1 -19 -14 -5 -18 19 -2 11 -4 28
-6 38 -1 9 -6 23 -10 30 -5 6 -6 12 -2 12 3 0 -1 15 -8 33 -8 17 -14 37 -15
42 -8 72 -50 157 -53 109z"/>
<path d="M4168 3183 c-19 -5 -39 -49 -40 -91 -1 -28 35 -133 54 -158 14 -19
11 -119 -3 -143 -17 -26 -20 -26 -49 -1 -26 23 -45 17 -30 -9 20 -39 82 -42
106 -6 23 36 19 99 -14 200 -17 50 -31 99 -33 110 -4 25 9 65 22 66 5 1 13 2
19 3 10 1 37 26 30 27 -32 5 -48 6 -62 2z"/>
<path d="M6699 3176 c-36 -18 -46 -77 -24 -145 10 -31 22 -60 26 -66 9 -13 20
-69 23 -120 4 -65 -36 -91 -71 -46 -15 20 -27 9 -18 -18 8 -28 57 -37 88 -16
45 29 45 86 0 210 -37 101 -39 125 -13 158 12 15 28 27 36 27 8 0 14 4 14 9 0
15 -37 19 -61 7z"/>
<path d="M6880 3182 c-40 -14 -56 -68 -38 -126 6 -17 11 -38 12 -46 1 -8 8
-26 16 -40 8 -14 16 -32 18 -40 6 -27 10 -112 5 -130 -7 -26 -39 -31 -59 -9
-13 14 -21 16 -28 9 -17 -17 28 -49 66 -47 68 4 79 119 21 230 -8 15 -12 27
-8 27 3 0 -1 12 -9 28 -12 23 -14 46 -7 85 0 4 17 17 36 29 20 11 34 22 32 25
-8 7 -42 10 -57 5z"/>
<path d="M7139 3176 c-15 -7 -27 -26 -33 -49 -8 -33 -5 -54 26 -145 39 -117
43 -176 12 -199 -15 -11 -21 -10 -39 7 -24 23 -35 25 -35 8 0 -25 17 -38 57
-44 38 -5 41 -4 56 29 20 41 16 92 -13 173 -30 87 -32 95 -34 138 -1 34 3 42
28 55 16 9 29 20 30 25 2 14 -29 15 -55 2z"/>
<path d="M1536 5634 c-8 -22 -8 -49 1 -40 8 8 16 56 9 56 -2 0 -7 -7 -10 -16z"/>
</g>
</svg>
